<svg width="18" height="18" viewBox="0 0 18 18" fill="none" xmlns="http://www.w3.org/2000/svg">
<path d="M9 18C13.9706 18 18 13.9706 18 9C18 4.02944 13.9706 0 9 0C4.02944 0 0 4.02944 0 9C0 13.9706 4.02944 18 9 18Z" fill="url(#paint0_linear_2826_1516)"/>
<path fill-rule="evenodd" clip-rule="evenodd" d="M9 17.6897C13.7992 17.6897 17.6897 13.7992 17.6897 9C17.6897 4.20084 13.7992 0.310345 9 0.310345C4.20084 0.310345 0.310345 4.20084 0.310345 9C0.310345 13.7992 4.20084 17.6897 9 17.6897ZM18 9C18 13.9706 13.9706 18 9 18C4.02944 18 0 13.9706 0 9C0 4.02944 4.02944 0 9 0C13.9706 0 18 4.02944 18 9Z" fill="url(#paint1_linear_2826_1516)" fill-opacity="0.2"/>
<path fill-rule="evenodd" clip-rule="evenodd" d="M9 17.6897C13.7992 17.6897 17.6897 13.7992 17.6897 9C17.6897 4.20084 13.7992 0.310345 9 0.310345C4.20084 0.310345 0.310345 4.20084 0.310345 9C0.310345 13.7992 4.20084 17.6897 9 17.6897ZM18 9C18 13.9706 13.9706 18 9 18C4.02944 18 0 13.9706 0 9C0 4.02944 4.02944 0 9 0C13.9706 0 18 4.02944 18 9Z" fill="url(#paint2_linear_2826_1516)" fill-opacity="0.4"/>
<g filter="url(#filter0_i_2826_1516)">
<path fill-rule="evenodd" clip-rule="evenodd" d="M5.01734 7.91377C6.61706 7.91377 7.91389 6.61694 7.91389 5.01722C7.91389 5.00555 7.91383 4.99389 7.91369 4.98224C7.91163 4.80806 8.04531 4.65515 8.2195 4.65515H9.80364C9.9557 4.65515 10.0828 4.77276 10.0855 4.92479C10.086 4.95553 10.0863 4.98635 10.0863 5.01722C10.0863 7.81673 7.81686 10.0862 5.01734 10.0862C4.98647 10.0862 4.95566 10.0859 4.92491 10.0854C4.77288 10.0826 4.65527 9.95558 4.65527 9.80352V8.21938C4.65527 8.04519 4.80819 7.9115 4.98237 7.91357C4.99401 7.9137 5.00567 7.91377 5.01734 7.91377ZM7.91389 13.0552V10.7855C7.91389 10.7087 7.94441 10.635 7.99873 10.5807L10.5808 7.99861C10.6351 7.94429 10.7088 7.91377 10.7856 7.91377H13.0553C13.2152 7.91377 13.3449 8.04346 13.3449 8.20343V9.79653C13.3449 9.9565 13.2152 10.0862 13.0553 10.0862H10.376C10.216 10.0862 10.0863 10.2159 10.0863 10.3758V13.0552C10.0863 13.2151 9.95663 13.3448 9.79665 13.3448H8.20355C8.04358 13.3448 7.91389 13.2151 7.91389 13.0552Z" fill="url(#paint3_linear_2826_1516)"/>
</g>
<defs>
<filter id="filter0_i_2826_1516" x="4.65527" y="4.65515" width="8.68945" height="9.68964" filterUnits="userSpaceOnUse" color-interpolation-filters="sRGB">
<feFlood flood-opacity="0" result="BackgroundImageFix"/>
<feBlend mode="normal" in="SourceGraphic" in2="BackgroundImageFix" result="shape"/>
<feColorMatrix in="SourceAlpha" type="matrix" values="0 0 0 0 0 0 0 0 0 0 0 0 0 0 0 0 0 0 127 0" result="hardAlpha"/>
<feOffset dy="1"/>
<feGaussianBlur stdDeviation="0.5"/>
<feComposite in2="hardAlpha" operator="arithmetic" k2="-1" k3="1"/>
<feColorMatrix type="matrix" values="0 0 0 0 0 0 0 0 0 0 0 0 0 0 0 0 0 0 0.25 0"/>
<feBlend mode="normal" in2="shape" result="effect1_innerShadow_2826_1516"/>
</filter>
<linearGradient id="paint0_linear_2826_1516" x1="9" y1="0" x2="9" y2="18" gradientUnits="userSpaceOnUse">
<stop stop-color="#FFD643"/>
<stop offset="1" stop-color="#FFD53F"/>
</linearGradient>
<linearGradient id="paint1_linear_2826_1516" x1="9" y1="6.54545" x2="9" y2="18" gradientUnits="userSpaceOnUse">
<stop stop-opacity="0"/>
<stop offset="1"/>
</linearGradient>
<linearGradient id="paint2_linear_2826_1516" x1="9" y1="0" x2="9" y2="18" gradientUnits="userSpaceOnUse">
<stop stop-color="white"/>
<stop offset="1" stop-color="white" stop-opacity="0"/>
</linearGradient>
<linearGradient id="paint3_linear_2826_1516" x1="9.0001" y1="4.65515" x2="9.0001" y2="16.1379" gradientUnits="userSpaceOnUse">
<stop stop-color="#BC9815"/>
<stop offset="1" stop-color="#B08E10" stop-opacity="0"/>
</linearGradient>
</defs>
</svg>
