<svg width="24" height="24" viewBox="0 0 24 24" fill="none" xmlns="http://www.w3.org/2000/svg">
<path d="M20.25 9H3.75C3.33579 9 3 9.29848 3 9.66667V20.3333C3 20.7015 3.33579 21 3.75 21H20.25C20.6642 21 21 20.7015 21 20.3333V9.66667C21 9.29848 20.6642 9 20.25 9Z" stroke="#2B64F8" stroke-width="2" stroke-linecap="round" stroke-linejoin="round"/>
<path d="M16 9V7C16 6.46957 15.8314 5.96086 15.5314 5.58579C15.2313 5.21071 14.8243 5 14.4 5H9.6C9.17565 5 8.76869 5.21071 8.46863 5.58579C8.16857 5.96086 8 6.46957 8 7V9" stroke="#2B64F8" stroke-width="2" stroke-linecap="round" stroke-linejoin="round"/>
</svg>
