<svg width="24" height="24" viewBox="0 0 24 24" fill="none" xmlns="http://www.w3.org/2000/svg">
<path d="M6.7109 13.5001L3 16.5001V4.50006C3 4.30115 3.07902 4.11038 3.21967 3.96973C3.36032 3.82908 3.55109 3.75006 3.75 3.75006H15.75C15.9489 3.75006 16.1397 3.82908 16.2803 3.96973C16.421 4.11038 16.5 4.30115 16.5 4.50006V12.7501C16.5 12.949 16.421 13.1397 16.2803 13.2804C16.1397 13.421 15.9489 13.5001 15.75 13.5001H6.7109Z" stroke="#ACB1BF" stroke-width="2" stroke-linecap="round" stroke-linejoin="round"/>
<path d="M7.5 13.5V17.25C7.5 17.4489 7.57902 17.6397 7.71967 17.7804C7.86032 17.921 8.05109 18 8.25 18H17.2891L21 21V9.00003C21 8.80112 20.921 8.61035 20.7803 8.4697C20.6397 8.32905 20.4489 8.25003 20.25 8.25003H16.5" stroke="#ACB1BF" stroke-width="2" stroke-linecap="round" stroke-linejoin="round"/>
</svg>
