<svg width="24" height="24" viewBox="0 0 24 24" fill="none" xmlns="http://www.w3.org/2000/svg">
<path d="M5.25 4.75H9.75C10.0261 4.75 10.25 4.97386 10.25 5.25V9.75C10.25 10.0261 10.0261 10.25 9.75 10.25H5.25C4.97386 10.25 4.75 10.0261 4.75 9.75V5.25C4.75 4.97386 4.97386 4.75 5.25 4.75Z" stroke="white" stroke-width="2"/>
<path d="M5.25 13.75H9.75C10.0261 13.75 10.25 13.9739 10.25 14.25V18.75C10.25 19.0261 10.0261 19.25 9.75 19.25H5.25C4.97386 19.25 4.75 19.0261 4.75 18.75V14.25C4.75 13.9739 4.97386 13.75 5.25 13.75Z" stroke="white" stroke-width="2"/>
<path d="M14.25 4.75H18.75C19.0261 4.75 19.25 4.97386 19.25 5.25V9.75C19.25 10.0261 19.0261 10.25 18.75 10.25H14.25C13.9739 10.25 13.75 10.0261 13.75 9.75V5.25C13.75 4.97386 13.9739 4.75 14.25 4.75Z" stroke="white" stroke-width="2"/>
<mask id="path-4-inside-1_2826_1483" fill="white">
<path d="M13.5 17.25C13.6989 17.25 13.8897 17.171 14.0303 17.0303C14.171 16.8897 14.25 16.6989 14.25 16.5V13.5C14.25 13.3011 14.171 13.1103 14.0303 12.9697C13.8897 12.829 13.6989 12.75 13.5 12.75C13.3011 12.75 13.1103 12.829 12.9697 12.9697C12.829 13.1103 12.75 13.3011 12.75 13.5V16.5C12.75 16.6989 12.829 16.8897 12.9697 17.0303C13.1103 17.171 13.3011 17.25 13.5 17.25Z"/>
</mask>
<path d="M14.25 16.5L16.25 16.5001V16.5H14.25ZM12.75 16.5H10.75V16.5001L12.75 16.5ZM13.5001 19.25C14.2294 19.25 14.9288 18.9602 15.4445 18.4445L12.6161 15.6161C12.8505 15.3817 13.1684 15.25 13.4999 15.25L13.5001 19.25ZM15.4445 18.4445C15.9602 17.9288 16.25 17.2294 16.25 16.5001L12.25 16.4999C12.25 16.1684 12.3817 15.8505 12.6161 15.6161L15.4445 18.4445ZM16.25 16.5V13.5H12.25V16.5H16.25ZM16.25 13.5C16.25 12.7707 15.9603 12.0712 15.4445 11.5555L12.6161 14.3839C12.3817 14.1495 12.25 13.8315 12.25 13.5H16.25ZM15.4445 11.5555C14.9288 11.0397 14.2293 10.75 13.5 10.75V14.75C13.1685 14.75 12.8505 14.6183 12.6161 14.3839L15.4445 11.5555ZM13.5 10.75C12.7707 10.75 12.0712 11.0397 11.5555 11.5555L14.3839 14.3839C14.1495 14.6183 13.8315 14.75 13.5 14.75V10.75ZM11.5555 11.5555C11.0397 12.0712 10.75 12.7707 10.75 13.5H14.75C14.75 13.8315 14.6183 14.1495 14.3839 14.3839L11.5555 11.5555ZM10.75 13.5V16.5H14.75V13.5H10.75ZM10.75 16.5001C10.75 17.2294 11.0398 17.9288 11.5555 18.4445L14.3839 15.6161C14.6183 15.8505 14.75 16.1684 14.75 16.4999L10.75 16.5001ZM11.5555 18.4445C12.0712 18.9602 12.7706 19.25 13.4999 19.25L13.5001 15.25C13.8316 15.25 14.1495 15.3817 14.3839 15.6161L11.5555 18.4445Z" fill="white" mask="url(#path-4-inside-1_2826_1483)"/>
<mask id="path-6-inside-2_2826_1483" fill="white">
<path d="M19.5 14.25H17.25V13.5C17.25 13.3011 17.171 13.1103 17.0303 12.9697C16.8897 12.829 16.6989 12.75 16.5 12.75C16.3011 12.75 16.1103 12.829 15.9697 12.9697C15.829 13.1103 15.75 13.3011 15.75 13.5V18.75H13.5C13.3011 18.75 13.1103 18.829 12.9697 18.9697C12.829 19.1103 12.75 19.3011 12.75 19.5C12.75 19.6989 12.829 19.8897 12.9697 20.0303C13.1103 20.171 13.3011 20.25 13.5 20.25H16.5C16.6989 20.25 16.8897 20.171 17.0303 20.0303C17.171 19.8897 17.25 19.6989 17.25 19.5V15.75H19.5C19.6989 15.75 19.8897 15.671 20.0303 15.5303C20.171 15.3897 20.25 15.1989 20.25 15C20.25 14.8011 20.171 14.6103 20.0303 14.4697C19.8897 14.329 19.6989 14.25 19.5 14.25Z"/>
</mask>
<path d="M17.25 14.25H15.25V16.25H17.25V14.25ZM15.75 18.75V20.75H17.75V18.75H15.75ZM16.5 20.25V22.25H16.5001L16.5 20.25ZM17.25 19.5L19.25 19.5001V19.5H17.25ZM17.25 15.75V13.75H15.25V15.75H17.25ZM19.5 12.25H17.25V16.25H19.5V12.25ZM19.25 14.25V13.5H15.25V14.25H19.25ZM19.25 13.5C19.25 12.7707 18.9603 12.0712 18.4445 11.5555L15.6161 14.3839C15.3817 14.1495 15.25 13.8315 15.25 13.5H19.25ZM18.4445 11.5555C17.9288 11.0397 17.2293 10.75 16.5 10.75V14.75C16.1685 14.75 15.8505 14.6183 15.6161 14.3839L18.4445 11.5555ZM16.5 10.75C15.7707 10.75 15.0712 11.0397 14.5555 11.5555L17.3839 14.3839C17.1495 14.6183 16.8315 14.75 16.5 14.75V10.75ZM14.5555 11.5555C14.0397 12.0712 13.75 12.7707 13.75 13.5H17.75C17.75 13.8315 17.6183 14.1495 17.3839 14.3839L14.5555 11.5555ZM13.75 13.5V18.75H17.75V13.5H13.75ZM15.75 16.75H13.5V20.75H15.75V16.75ZM13.5 16.75C12.7707 16.75 12.0712 17.0397 11.5555 17.5555L14.3839 20.3839C14.1495 20.6183 13.8315 20.75 13.5 20.75V16.75ZM11.5555 17.5555C11.0397 18.0712 10.75 18.7707 10.75 19.5H14.75C14.75 19.8315 14.6183 20.1495 14.3839 20.3839L11.5555 17.5555ZM10.75 19.5C10.75 20.2293 11.0397 20.9288 11.5555 21.4445L14.3839 18.6161C14.6183 18.8505 14.75 19.1685 14.75 19.5H10.75ZM11.5555 21.4445C12.0712 21.9603 12.7707 22.25 13.5 22.25V18.25C13.8315 18.25 14.1495 18.3817 14.3839 18.6161L11.5555 21.4445ZM13.5 22.25H16.5V18.25H13.5V22.25ZM16.5001 22.25C17.2294 22.25 17.9288 21.9602 18.4445 21.4445L15.6161 18.6161C15.8505 18.3817 16.1684 18.25 16.4999 18.25L16.5001 22.25ZM18.4445 21.4445C18.9602 20.9288 19.25 20.2294 19.25 19.5001L15.25 19.4999C15.25 19.1684 15.3817 18.8505 15.6161 18.6161L18.4445 21.4445ZM19.25 19.5V15.75H15.25V19.5H19.25ZM17.25 17.75H19.5V13.75H17.25V17.75ZM19.5 17.75C20.2293 17.75 20.9288 17.4603 21.4445 16.9445L18.6161 14.1161C18.8505 13.8817 19.1685 13.75 19.5 13.75V17.75ZM21.4445 16.9445C21.9603 16.4288 22.25 15.7293 22.25 15H18.25C18.25 14.6685 18.3817 14.3505 18.6161 14.1161L21.4445 16.9445ZM22.25 15C22.25 14.2707 21.9603 13.5712 21.4445 13.0555L18.6161 15.8839C18.3817 15.6495 18.25 15.3315 18.25 15H22.25ZM21.4445 13.0555C20.9288 12.5397 20.2293 12.25 19.5 12.25V16.25C19.1685 16.25 18.8505 16.1183 18.6161 15.8839L21.4445 13.0555Z" fill="white" mask="url(#path-6-inside-2_2826_1483)"/>
<mask id="path-8-inside-3_2826_1483" fill="white">
<path d="M19.5 17.25C19.3011 17.25 19.1103 17.329 18.9697 17.4697C18.829 17.6103 18.75 17.8011 18.75 18V19.5C18.75 19.6989 18.829 19.8897 18.9697 20.0303C19.1103 20.171 19.3011 20.25 19.5 20.25C19.6989 20.25 19.8897 20.171 20.0303 20.0303C20.171 19.8897 20.25 19.6989 20.25 19.5V18C20.25 17.8011 20.171 17.6103 20.0303 17.4697C19.8897 17.329 19.6989 17.25 19.5 17.25Z"/>
</mask>
<path d="M18.75 18L16.75 17.9999V18H18.75ZM20.25 18H22.25V17.9999L20.25 18ZM19.4999 15.25C18.7706 15.25 18.0712 15.5398 17.5555 16.0555L20.3839 18.8839C20.1495 19.1183 19.8316 19.25 19.5001 19.25L19.4999 15.25ZM17.5555 16.0555C17.0398 16.5712 16.75 17.2706 16.75 17.9999L20.75 18.0001C20.75 18.3316 20.6183 18.6495 20.3839 18.8839L17.5555 16.0555ZM16.75 18V19.5H20.75V18H16.75ZM16.75 19.5C16.75 20.2293 17.0397 20.9288 17.5555 21.4445L20.3839 18.6161C20.6183 18.8505 20.75 19.1685 20.75 19.5H16.75ZM17.5555 21.4445C18.0712 21.9603 18.7707 22.25 19.5 22.25V18.25C19.8315 18.25 20.1495 18.3817 20.3839 18.6161L17.5555 21.4445ZM19.5 22.25C20.2293 22.25 20.9288 21.9603 21.4445 21.4445L18.6161 18.6161C18.8505 18.3817 19.1685 18.25 19.5 18.25V22.25ZM21.4445 21.4445C21.9603 20.9288 22.25 20.2293 22.25 19.5H18.25C18.25 19.1685 18.3817 18.8505 18.6161 18.6161L21.4445 21.4445ZM22.25 19.5V18H18.25V19.5H22.25ZM22.25 17.9999C22.25 17.2706 21.9602 16.5712 21.4445 16.0555L18.6161 18.8839C18.3817 18.6495 18.25 18.3316 18.25 18.0001L22.25 17.9999ZM21.4445 16.0555C20.9288 15.5398 20.2294 15.25 19.5001 15.25L19.4999 19.25C19.1684 19.25 18.8505 19.1183 18.6161 18.8839L21.4445 16.0555Z" fill="white" mask="url(#path-8-inside-3_2826_1483)"/>
</svg>
